<svg xmlns="http://www.w3.org/2000/svg" width="64" height="64" viewBox="0 0 512 512">
  <defs>
    <linearGradient id="bg" x1="0" y1="0" x2="512" y2="512" gradientUnits="userSpaceOnUse">
      <stop offset="0" stop-color="#069494"/>
      <stop offset="1" stop-color="#035656"/>
    </linearGradient>
  </defs>
  <rect width="512" height="512" rx="112" fill="url(#bg)"/>
  <path d="M182 224c-30 0-52 22-52 54 0 30 20 50 46 50 4 0 8 0 11-1-6 22-22 38-44 46l8 20c46-14 74-48 74-92v-20c0-34-19-57-43-57zm140 0c-30 0-52 22-52 54 0 30 20 50 46 50 4 0 8 0 11-1-6 22-22 38-44 46l8 20c46-14 74-48 74-92v-20c0-34-19-57-43-57z" fill="#f7e6b4"/>
  <circle cx="256" cy="256" r="176" fill="none" stroke="#a0d6d6" stroke-width="10" opacity="0.35"/>
</svg>
